<?xml version="1.0" standalone="no"?>
<!DOCTYPE svg PUBLIC "-//W3C//DTD SVG 20010904//EN"
 "http://www.w3.org/TR/2001/REC-SVG-20010904/DTD/svg10.dtd">
<svg version="1.0" xmlns="http://www.w3.org/2000/svg"
 width="1138.000000pt" height="1280.000000pt" viewBox="0 0 1138.000000 1280.000000"
 preserveAspectRatio="xMidYMid meet">
<g transform="translate(0.000000,1280.000000) scale(0.100000,-0.100000)"
fill="#000000" stroke="none">
<path d="M4775 12790 c-22 -4 -87 -16 -145 -25 -546 -89 -1073 -512 -1278
-1026 -80 -204 -101 -318 -109 -619 -10 -373 33 -606 158 -850 152 -297 424
-532 900 -779 394 -205 764 -347 1479 -567 516 -159 682 -214 855 -282 413
-161 648 -343 740 -571 47 -115 59 -207 52 -416 -21 -634 -199 -1082 -569
-1431 -181 -170 -384 -297 -630 -394 l-108 -43 0 -313 0 -314 30 0 c39 0 249
45 357 76 143 41 270 92 428 169 477 234 876 610 1145 1078 321 561 415 1254
239 1770 -81 237 -232 456 -432 624 -281 235 -668 408 -1194 533 -147 35 -245
54 -708 136 -665 118 -1179 303 -1537 554 -118 82 -309 271 -378 374 -78 117
-147 269 -182 403 -30 113 -31 127 -32 323 -1 165 3 221 18 290 92 421 343
720 688 821 103 30 336 37 477 15 321 -51 567 -210 713 -461 45 -77 83 -174
98 -247 15 -75 1 -99 -100 -177 -166 -129 -197 -190 -187 -366 10 -189 61
-299 273 -592 139 -192 256 -318 319 -348 143 -66 265 43 349 310 55 178 157
575 163 637 8 89 -10 177 -54 261 -41 78 -70 105 -163 152 -95 48 -120 83
-175 244 -149 440 -386 740 -713 905 -104 52 -260 102 -377 121 -55 8 -128 20
-161 25 -71 11 -191 11 -249 0z"/>
<path d="M7 8243 c-3 -5 7 -35 23 -69 48 -107 175 -209 350 -282 111 -46 216
-69 390 -86 343 -35 649 -123 980 -282 300 -145 473 -257 845 -549 487 -382
725 -540 1075 -714 448 -223 930 -357 1453 -406 89 -8 196 -19 237 -23 l75 -7
5 -997 c3 -548 8 -999 11 -1003 25 -25 440 -36 472 -12 16 11 17 89 20 1062
l2 1050 25 7 c251 73 447 164 590 272 432 326 678 881 681 1534 0 121 -3 159
-20 213 -27 84 -82 169 -159 242 l-61 57 -3495 0 c-1922 0 -3497 -3 -3499 -7z"/>
<path d="M8530 8237 c0 -8 9 -56 20 -108 63 -297 50 -713 -31 -1044 -24 -95
-96 -318 -116 -358 -38 -75 -4 -53 364 234 398 311 559 416 863 563 331 159
637 247 980 282 174 17 279 40 390 86 175 73 302 175 350 282 16 34 26 64 23
69 -2 4 -643 7 -1424 7 -1184 0 -1419 -2 -1419 -13z"/>
<path d="M5185 5743 c-104 -15 -284 -72 -403 -129 -281 -135 -572 -425 -696
-695 -95 -207 -120 -366 -95 -615 48 -482 313 -812 833 -1039 233 -101 495
-171 735 -196 242 -25 577 2 831 66 242 61 532 186 725 312 266 174 466 405
542 626 26 76 28 93 28 227 -1 132 -3 152 -28 223 -34 99 -79 169 -145 229
-71 63 -120 90 -240 132 -167 58 -245 71 -432 70 -187 0 -317 -19 -567 -82
l-148 -37 -3 -219 -2 -219 37 6 c21 3 74 13 118 21 205 39 365 2 425 -97 10
-17 24 -62 31 -101 50 -293 -181 -505 -641 -588 -154 -28 -497 -31 -640 -5
-261 45 -459 135 -581 264 -123 127 -163 272 -139 493 36 336 169 523 439 620
l91 33 0 353 0 354 -22 -1 c-13 -1 -36 -4 -53 -6z"/>
<path d="M5138 4421 c-57 -38 -132 -94 -166 -123 l-64 -53 6 -45 c3 -24 16
-65 28 -90 24 -48 115 -144 147 -155 15 -4 40 9 96 52 l75 58 0 213 c0 127 -4
212 -9 212 -6 0 -56 -31 -113 -69z"/>
<path d="M4376 3272 c-2 -4 -13 -60 -22 -123 -13 -82 -18 -174 -18 -324 0
-200 1 -214 27 -298 114 -370 434 -638 953 -797 216 -67 459 -104 1089 -165
204 -20 399 -40 434 -46 78 -12 150 -47 221 -109 71 -60 90 -70 140 -70 54 0
70 29 51 98 -56 211 -348 370 -831 451 -69 12 -231 35 -360 51 -287 38 -402
60 -525 104 -379 136 -581 414 -637 876 l-13 104 -100 41 c-123 51 -230 105
-315 159 -91 59 -88 57 -94 48z"/>
<path d="M5445 2892 c-7 -20 -6 -577 1 -597 15 -39 179 -100 365 -136 92 -17
113 -19 120 -7 11 16 12 718 1 735 -11 18 -480 23 -487 5z"/>
<path d="M5446 1485 c-3 -9 -6 -138 -6 -286 0 -292 -3 -308 -56 -372 -89 -106
-241 -168 -582 -237 -339 -70 -501 -124 -638 -215 -117 -78 -173 -91 -573
-125 -237 -20 -313 -33 -431 -72 -130 -42 -270 -127 -270 -164 0 -12 410 -14
2800 -14 2390 0 2800 2 2800 14 0 37 -140 122 -270 164 -118 39 -195 52 -431
72 -373 32 -477 53 -549 110 -106 84 -315 158 -620 221 -107 21 -229 49 -270
60 -182 50 -311 123 -370 210 l-35 52 -5 261 -5 261 -45 7 c-25 4 -121 19
-215 33 -93 14 -182 28 -196 31 -19 4 -28 1 -33 -11z"/>
</g>
</svg>
